<svg width="24" height="24" viewBox="0 0 24 24" fill="none" xmlns="http://www.w3.org/2000/svg">
  <path d="M22.65 9.16L22.13 7.8l-1.73-4.4c-.09-.24-.31-.4-.57-.4-.26 0-.48.16-.57.4L17.53 7.8H6.47L4.74 3.4c-.09-.24-.31-.4-.57-.4-.26 0-.48.16-.57.4L1.87 7.8l-.52 1.36c-.17.44-.17.92 0 1.36l10.12 7.7 10.12-7.7c.17-.44.17-.92 0-1.36z" fill="#FC6D26"/>
  <path d="M11.47 18.22l3.85-11.8H6.47l3.85 11.8h1.15z" fill="#E24329"/>
  <path d="M11.47 18.22L7.62 6.42H4.74L11.47 18.22z" fill="#FC6D26"/>
  <path d="M4.74 6.42l-1.73 4.4c-.17.44-.17.92 0 1.36l8.46 6.04L4.74 6.42z" fill="#FCA326"/>
  <path d="M4.74 6.42h2.88L6.47 3.4c-.09-.24-.31-.4-.57-.4-.26 0-.48.16-.57.4L4.74 6.42z" fill="#E24329"/>
  <path d="M11.47 18.22l3.85-11.8h2.88L11.47 18.22z" fill="#FC6D26"/>
  <path d="M19.26 6.42l1.73 4.4c.17.44.17.92 0 1.36l-8.46 6.04L19.26 6.42z" fill="#FCA326"/>
  <path d="M19.26 6.42h-2.88l1.15-3.02c.09-.24.31-.4.57-.4.26 0 .48.16.57.4l1.73 4.4-1.14-1.38z" fill="#E24329"/>
</svg>